<svg width="20" height="20" viewBox="0 0 20 20" fill="none" xmlns="http://www.w3.org/2000/svg">
<path fill-rule="evenodd" clip-rule="evenodd" d="M4.04508 6.66671C3.19176 6.66671 2.5 7.35847 2.5 8.21179V12.381C2.5 13.5779 2.5 14.1764 2.66835 14.6575C2.96989 15.5193 3.64742 16.1968 4.50916 16.4984C4.99028 16.6667 5.58876 16.6667 6.78571 16.6667H13.2143C14.4112 16.6667 15.0097 16.6667 15.4908 16.4984C16.3526 16.1968 17.0301 15.5193 17.3316 14.6575C17.5 14.1764 17.5 13.5779 17.5 12.381V8.21179C17.5 7.35847 16.8082 6.66671 15.9549 6.66671C15.3697 6.66671 14.8347 6.33605 14.5729 5.8126L13.8889 4.44448L13.8836 4.43399C13.5448 3.76093 12.8564 3.33547 12.1028 3.33338L12.0911 3.33337H7.90893L7.89719 3.33338C7.14364 3.33547 6.45523 3.76093 6.11637 4.43399L6.11111 4.44449L5.42705 5.81261C5.16533 6.33606 4.63032 6.66671 4.04508 6.66671ZM11.3333 10.8334C11.3333 11.5698 10.7364 12.1667 10 12.1667C9.26362 12.1667 8.66667 11.5698 8.66667 10.8334C8.66667 10.097 9.26362 9.50004 10 9.50004C10.7364 9.50004 11.3333 10.097 11.3333 10.8334ZM13.3333 10.8334C13.3333 12.6743 11.841 14.1667 10 14.1667C8.15905 14.1667 6.66667 12.6743 6.66667 10.8334C6.66667 8.99242 8.15905 7.50004 10 7.50004C11.841 7.50004 13.3333 8.99242 13.3333 10.8334Z" fill="#FF4900"/>
</svg>
