<svg width="20" height="20" viewBox="0 0 20 20" fill="none" xmlns="http://www.w3.org/2000/svg">
<path fill-rule="evenodd" clip-rule="evenodd" d="M2.54534 3.37868C1.66666 4.25736 1.66666 5.67157 1.66666 8.5V11.5C1.66666 14.3284 1.66666 15.7426 2.54534 16.6213C3.42402 17.5 4.83823 17.5 7.66666 17.5H12.3333C15.1617 17.5 16.576 17.5 17.4546 16.6213C18.3333 15.7426 18.3333 14.3284 18.3333 11.5V8.5C18.3333 5.67157 18.3333 4.25736 17.4546 3.37868C16.576 2.5 15.1617 2.5 12.3333 2.5H7.66666C4.83823 2.5 3.42402 2.5 2.54534 3.37868ZM13.3333 6.5C13.8856 6.5 14.3333 6.94772 14.3333 7.5V14.1667C14.3333 14.719 13.8856 15.1667 13.3333 15.1667C12.781 15.1667 12.3333 14.719 12.3333 14.1667V7.5C12.3333 6.94772 12.781 6.5 13.3333 6.5ZM7.66666 9.16667C7.66666 8.61438 7.21894 8.16667 6.66666 8.16667C6.11437 8.16667 5.66666 8.61438 5.66666 9.16667V14.1667C5.66666 14.719 6.11437 15.1667 6.66666 15.1667C7.21894 15.1667 7.66666 14.719 7.66666 14.1667V9.16667ZM11 10.8333C11 10.281 10.5523 9.83333 9.99999 9.83333C9.44771 9.83333 8.99999 10.281 8.99999 10.8333V14.1667C8.99999 14.719 9.44771 15.1667 9.99999 15.1667C10.5523 15.1667 11 14.719 11 14.1667V10.8333Z" fill="#FF4900"/>
</svg>
