<svg width="20" height="20" viewBox="0 0 20 20" fill="none" xmlns="http://www.w3.org/2000/svg">
<path fill-rule="evenodd" clip-rule="evenodd" d="M9.99999 18.3334C14.6024 18.3334 18.3333 14.6025 18.3333 10.0001C18.3333 5.39771 14.6024 1.66675 9.99999 1.66675C5.39762 1.66675 1.66666 5.39771 1.66666 10.0001C1.66666 14.6025 5.39762 18.3334 9.99999 18.3334ZM12.1651 8.74997C11.7019 7.94774 9.34233 6.6326 8.16706 6.01306C7.85117 5.84654 7.47752 6.06227 7.46378 6.4191C7.41268 7.74668 7.37182 10.4477 7.83498 11.25C8.29815 12.0522 10.6578 13.3673 11.833 13.9869C12.1489 14.1534 12.5226 13.9377 12.5363 13.5808C12.5874 12.2533 12.6283 9.55219 12.1651 8.74997Z" fill="#FF4900"/>
</svg>
