<svg width="23" height="24" viewBox="0 0 23 24" fill="none" xmlns="http://www.w3.org/2000/svg">
<g clip-path="url(#clip0_1_443)">
<path d="M4.19817 0.74292C1.87257 0.74292 0 2.61549 0 4.94109V19.5366C0 21.8622 1.87257 23.7348 4.19817 23.7348H12.1088V14.7464H9.73203V11.5103H12.1088V8.74553C12.1088 6.57337 13.5131 4.57897 16.7481 4.57897C18.0579 4.57897 19.0265 4.70471 19.0265 4.70471L18.9503 7.72671C18.9503 7.72671 17.9625 7.71738 16.8846 7.71738C15.718 7.71738 15.531 8.25488 15.531 9.14719V11.5103H19.043L18.89 14.7464H15.531V23.7348H18.7937C21.1193 23.7348 22.9918 21.8622 22.9918 19.5366V4.94111C22.9918 2.61551 21.1193 0.742943 18.7937 0.742943H4.19815L4.19817 0.74292Z" fill="white"/>
</g>
<defs>
<clipPath id="clip0_1_443">
<rect width="22.9918" height="22.9918" fill="white" transform="translate(0 0.74292)"/>
</clipPath>
</defs>
</svg>
