<svg width="31" height="31" viewBox="0 0 31 31" fill="none" xmlns="http://www.w3.org/2000/svg">
<path d="M15.4715 11.2714C13.2869 11.2714 11.5041 13.0542 11.5041 15.2388C11.5041 17.4234 13.2869 19.2062 15.4715 19.2062C17.6562 19.2062 19.439 17.4234 19.439 15.2388C19.439 13.0542 17.6562 11.2714 15.4715 11.2714ZM27.3709 15.2388C27.3709 13.5959 27.3858 11.9678 27.2935 10.3279C27.2012 8.42302 26.7667 6.73247 25.3738 5.33955C23.9779 3.94366 22.2903 3.51209 20.3855 3.41982C18.7425 3.32756 17.1145 3.34244 15.4745 3.34244C13.8316 3.34244 12.2035 3.32756 10.5636 3.41982C8.65874 3.51209 6.96819 3.94663 5.57527 5.33955C4.17937 6.73545 3.74781 8.42302 3.65554 10.3279C3.56327 11.9708 3.57816 13.5988 3.57816 15.2388C3.57816 16.8788 3.56327 18.5098 3.65554 20.1497C3.74781 22.0546 4.18235 23.7451 5.57527 25.1381C6.97116 26.5339 8.65874 26.9655 10.5636 27.0578C12.2065 27.15 13.8346 27.1352 15.4745 27.1352C17.1174 27.1352 18.7455 27.15 20.3855 27.0578C22.2903 26.9655 23.9808 26.531 25.3738 25.1381C26.7697 23.7422 27.2012 22.0546 27.2935 20.1497C27.3887 18.5098 27.3709 16.8817 27.3709 15.2388ZM15.4715 21.3432C12.0934 21.3432 9.3671 18.6169 9.3671 15.2388C9.3671 11.8607 12.0934 9.13436 15.4715 9.13436C18.8497 9.13436 21.576 11.8607 21.576 15.2388C21.576 18.6169 18.8497 21.3432 15.4715 21.3432ZM21.826 10.31C21.0373 10.31 20.4003 9.67308 20.4003 8.88435C20.4003 8.09563 21.0373 7.45869 21.826 7.45869C22.6147 7.45869 23.2516 8.09563 23.2516 8.88435C23.2519 9.07164 23.2152 9.25713 23.1436 9.43021C23.072 9.60328 22.967 9.76054 22.8346 9.89297C22.7022 10.0254 22.5449 10.1304 22.3718 10.202C22.1988 10.2735 22.0133 10.3102 21.826 10.31Z" fill="white"/>
</svg>
