<svg width="20" height="20" viewBox="0 0 20 20" fill="none" xmlns="http://www.w3.org/2000/svg">
<path fill-rule="evenodd" clip-rule="evenodd" d="M10.3995 16.4678C11.7159 15.7735 15.8333 13.2736 15.8333 9.16666C15.8333 5.945 13.2217 3.33333 9.99999 3.33333C6.77833 3.33333 4.16666 5.945 4.16666 9.16666C4.16666 13.2736 8.28407 15.7735 9.60046 16.4678C9.85241 16.6007 10.1476 16.6007 10.3995 16.4678ZM9.99999 11.6667C11.3807 11.6667 12.5 10.5474 12.5 9.16666C12.5 7.78595 11.3807 6.66666 9.99999 6.66666C8.61928 6.66666 7.49999 7.78595 7.49999 9.16666C7.49999 10.5474 8.61928 11.6667 9.99999 11.6667Z" fill="#FF4900"/>
</svg>
