<svg width="366" height="222" viewBox="0 0 366 222" fill="none" xmlns="http://www.w3.org/2000/svg">
<circle cx="3" cy="3" r="3" fill="#D7D7D7"/>
<circle cx="3" cy="39" r="3" fill="#D7D7D7"/>
<circle cx="3" cy="75" r="3" fill="#D7D7D7"/>
<circle cx="3" cy="111" r="3" fill="#D7D7D7"/>
<circle cx="3" cy="147" r="3" fill="#D7D7D7"/>
<circle cx="3" cy="183" r="3" fill="#D7D7D7"/>
<circle cx="3" cy="219" r="3" fill="#D7D7D7"/>
<circle cx="39" cy="3" r="3" fill="#D7D7D7"/>
<circle cx="39" cy="39" r="3" fill="#D7D7D7"/>
<circle cx="39" cy="75" r="3" fill="#D7D7D7"/>
<circle cx="39" cy="111" r="3" fill="#D7D7D7"/>
<circle cx="39" cy="147" r="3" fill="#D7D7D7"/>
<circle cx="39" cy="183" r="3" fill="#D7D7D7"/>
<circle cx="39" cy="219" r="3" fill="#D7D7D7"/>
<circle cx="75" cy="3" r="3" fill="#D7D7D7"/>
<circle cx="75" cy="39" r="3" fill="#D7D7D7"/>
<circle cx="75" cy="75" r="3" fill="#D7D7D7"/>
<circle cx="75" cy="111" r="3" fill="#D7D7D7"/>
<circle cx="75" cy="147" r="3" fill="#D7D7D7"/>
<circle cx="75" cy="183" r="3" fill="#D7D7D7"/>
<circle cx="75" cy="219" r="3" fill="#D7D7D7"/>
<circle cx="111" cy="3" r="3" fill="#D7D7D7"/>
<circle cx="111" cy="39" r="3" fill="#D7D7D7"/>
<circle cx="111" cy="75" r="3" fill="#D7D7D7"/>
<circle cx="111" cy="111" r="3" fill="#D7D7D7"/>
<circle cx="111" cy="147" r="3" fill="#D7D7D7"/>
<circle cx="111" cy="183" r="3" fill="#D7D7D7"/>
<circle cx="111" cy="219" r="3" fill="#D7D7D7"/>
<circle cx="147" cy="3" r="3" fill="#D7D7D7"/>
<circle cx="147" cy="39" r="3" fill="#D7D7D7"/>
<circle cx="147" cy="75" r="3" fill="#D7D7D7"/>
<circle cx="147" cy="111" r="3" fill="#D7D7D7"/>
<circle cx="147" cy="147" r="3" fill="#D7D7D7"/>
<circle cx="147" cy="183" r="3" fill="#D7D7D7"/>
<circle cx="147" cy="219" r="3" fill="#D7D7D7"/>
<circle cx="183" cy="3" r="3" fill="#D7D7D7"/>
<circle cx="183" cy="39" r="3" fill="#D7D7D7"/>
<circle cx="183" cy="75" r="3" fill="#D7D7D7"/>
<circle cx="183" cy="111" r="3" fill="#D7D7D7"/>
<circle cx="183" cy="147" r="3" fill="#D7D7D7"/>
<circle cx="183" cy="183" r="3" fill="#D7D7D7"/>
<circle cx="183" cy="219" r="3" fill="#D7D7D7"/>
<circle cx="219" cy="3" r="3" fill="#D7D7D7"/>
<circle cx="219" cy="39" r="3" fill="#D7D7D7"/>
<circle cx="219" cy="75" r="3" fill="#D7D7D7"/>
<circle cx="219" cy="111" r="3" fill="#D7D7D7"/>
<circle cx="219" cy="147" r="3" fill="#D7D7D7"/>
<circle cx="219" cy="183" r="3" fill="#D7D7D7"/>
<circle cx="219" cy="219" r="3" fill="#D7D7D7"/>
<circle cx="255" cy="3" r="3" fill="#D7D7D7"/>
<circle cx="255" cy="39" r="3" fill="#D7D7D7"/>
<circle cx="255" cy="75" r="3" fill="#D7D7D7"/>
<circle cx="255" cy="111" r="3" fill="#D7D7D7"/>
<circle cx="255" cy="147" r="3" fill="#D7D7D7"/>
<circle cx="255" cy="183" r="3" fill="#D7D7D7"/>
<circle cx="255" cy="219" r="3" fill="#D7D7D7"/>
<circle cx="291" cy="3" r="3" fill="#D7D7D7"/>
<circle cx="291" cy="39" r="3" fill="#D7D7D7"/>
<circle cx="291" cy="75" r="3" fill="#D7D7D7"/>
<circle cx="291" cy="111" r="3" fill="#D7D7D7"/>
<circle cx="291" cy="147" r="3" fill="#D7D7D7"/>
<circle cx="291" cy="183" r="3" fill="#D7D7D7"/>
<circle cx="291" cy="219" r="3" fill="#D7D7D7"/>
<circle cx="327" cy="3" r="3" fill="#D7D7D7"/>
<circle cx="327" cy="39" r="3" fill="#D7D7D7"/>
<circle cx="327" cy="75" r="3" fill="#D7D7D7"/>
<circle cx="327" cy="111" r="3" fill="#D7D7D7"/>
<circle cx="327" cy="147" r="3" fill="#D7D7D7"/>
<circle cx="327" cy="183" r="3" fill="#D7D7D7"/>
<circle cx="327" cy="219" r="3" fill="#D7D7D7"/>
<circle cx="363" cy="3" r="3" fill="#D7D7D7"/>
<circle cx="363" cy="39" r="3" fill="#D7D7D7"/>
<circle cx="363" cy="75" r="3" fill="#D7D7D7"/>
<circle cx="363" cy="111" r="3" fill="#D7D7D7"/>
<circle cx="363" cy="147" r="3" fill="#D7D7D7"/>
<circle cx="363" cy="183" r="3" fill="#D7D7D7"/>
<circle cx="363" cy="219" r="3" fill="#D7D7D7"/>
</svg>
