<svg width="25" height="28" viewBox="0 0 25 28" fill="none" xmlns="http://www.w3.org/2000/svg">
<g clip-path="url(#clip0_1_445)">
<path d="M22.1691 2.2749H3.26384C1.84058 2.2749 0.685852 3.39755 0.685852 4.78128V23.1614C0.685852 24.5451 1.84058 25.6678 3.26384 25.6678H22.1691C23.5923 25.6678 24.7471 24.5451 24.7471 23.1614V4.78128C24.7471 3.39755 23.5923 2.2749 22.1691 2.2749ZM19.5428 10.5668C19.5535 10.713 19.5535 10.8645 19.5535 11.0107C19.5535 15.5378 16.0088 20.7542 9.53157 20.7542C7.53363 20.7542 5.6807 20.1903 4.12317 19.2191C4.40782 19.2504 4.68173 19.2608 4.97176 19.2608C6.62059 19.2608 8.13516 18.7178 9.34359 17.7988C7.7968 17.7674 6.49707 16.7806 6.05129 15.4229C6.59374 15.5013 7.08248 15.5013 7.64105 15.3603C6.02981 15.0418 4.82137 13.6633 4.82137 11.9976V11.9558C5.28863 12.2116 5.83646 12.3683 6.41113 12.3892C5.92799 12.0767 5.53192 11.6529 5.25827 11.1554C4.98462 10.6579 4.84191 10.1023 4.84286 9.53818C4.84286 8.90114 5.01472 8.31632 5.32086 7.80982C7.05563 9.88802 9.66047 11.2456 12.5822 11.3919C12.0827 9.06823 13.8712 7.18322 16.0195 7.18322C17.0346 7.18322 17.9476 7.59573 18.5921 8.2641C19.387 8.11789 20.1497 7.83071 20.8264 7.43908C20.5632 8.23277 20.01 8.90114 19.2796 9.32409C19.9885 9.25099 20.676 9.05779 21.3098 8.79148C20.8318 9.47552 20.2302 10.0812 19.5428 10.5668Z" fill="white"/>
</g>
<defs>
<clipPath id="clip0_1_445">
<rect width="24.0612" height="26.7347" fill="white" transform="translate(0.685852 0.604004)"/>
</clipPath>
</defs>
</svg>
